<svg width="89" height="31" viewBox="0 0 89 31" fill="none" xmlns="http://www.w3.org/2000/svg">
<path d="M88.7262 29.9776H69.4075V26.0725H88.7262V29.9776Z" fill="white"/>
<path d="M66.4343 29.9781H63.4156C60.9203 29.9781 59.5118 28.6151 59.2702 26.4102H59.069C58.3043 28.9759 56.0103 30.4592 52.7905 30.4592C48.6449 30.4592 45.9484 28.134 45.9484 24.2454C45.9484 20.0762 49.0475 17.9916 55.1651 17.9916H58.8276V16.6286C58.8276 14.0228 57.5798 12.6598 54.7223 12.6598C52.1063 12.6598 50.6172 13.7823 49.4901 15.3858L46.5522 12.9003C47.84 10.6153 50.7379 8.81128 55.2455 8.81128C60.6789 8.81128 63.9792 11.417 63.9792 16.388V26.0725H66.4343V29.9781ZM54.521 26.9314C56.9762 26.9314 58.8276 25.6885 58.8276 23.7242V20.9582H55.2858C52.4685 20.9582 51.0598 21.8802 51.0598 23.604V24.4058C51.0598 26.0494 52.388 26.9314 54.521 26.9314Z" fill="white"/>
<path d="M36.7187 29.9781V26.5168H36.4368C35.1225 29.0022 33.4183 30.4592 30.2387 30.4592C25.4895 30.4592 22.31 26.9314 22.31 19.6353C22.31 12.3391 25.4895 8.8113 30.2387 8.8113C33.4183 8.8113 35.1225 9.89492 36.4368 12.3804H36.7187V0.3125H41.8702V29.9781H36.7187ZM32.4121 26.37C34.7464 26.37 36.7187 25.2476 36.7187 22.8824V16.388C36.7187 14.0228 34.7464 12.9003 32.4121 12.9003C29.4338 12.9003 27.7032 14.8647 27.7032 17.9916V21.2789C27.7032 24.4058 29.4338 26.37 32.4121 26.37Z" fill="white"/>
<path d="M10.1825 30.4592C3.82349 30.4592 0 26.29 0 19.6351C0 12.9805 3.86373 8.81126 10.1423 8.81126C14.5293 8.81126 17.1453 10.8157 18.5137 13.7823L14.5293 15.947C13.8048 14.1831 12.4766 12.9805 10.1423 12.9805C7.12375 12.9805 5.39312 14.9047 5.39312 17.9114V21.359C5.39312 24.3255 7.08352 26.29 10.2228 26.29C12.6779 26.29 14.0463 25.0471 14.972 23.2031L18.8357 25.4882C17.4271 28.4146 14.65 30.4592 10.1825 30.4592Z" fill="white"/>
</svg>
