<svg width="25" height="25" viewBox="0 0 25 25" fill="none" xmlns="http://www.w3.org/2000/svg">
<path d="M16.06 14.5733H15.27L14.99 14.3033C15.97 13.1633 16.56 11.6833 16.56 10.0733C16.56 6.48333 13.65 3.57333 10.06 3.57333C6.47 3.57333 3.56 6.48333 3.56 10.0733C3.56 13.6633 6.47 16.5733 10.06 16.5733C11.67 16.5733 13.15 15.9833 14.29 15.0033L14.56 15.2833V16.0733L19.56 21.0633L21.05 19.5733L16.06 14.5733ZM10.06 14.5733C7.57 14.5733 5.56 12.5633 5.56 10.0733C5.56 7.58333 7.57 5.57333 10.06 5.57333C12.55 5.57333 14.56 7.58333 14.56 10.0733C14.56 12.5633 12.55 14.5733 10.06 14.5733Z" fill="#FEB701"/>
</svg>
